# Wavefront OBJ file automatically generated by Tiled2Unity

# Vertices (Count = 256)
v 0 -0.32 0
v -0.32 -0.32 0
v -0.32 0 0
v 0 0 0
v -0.64 -0.32 0
v -0.64 0 0
v -0.96 -0.32 0
v -0.96 0 0
v -1.28 -0.32 0
v -1.28 0 0
v -1.6 -0.32 0
v -1.6 0 0
v -1.92 -0.32 0
v -1.92 0 0
v -2.24 -0.32 0
v -2.24 0 0
v -2.56 -0.32 0
v -2.56 0 0
v -2.88 -0.32 0
v -2.88 0 0
v -3.2 -0.32 0
v -3.2 0 0
v -3.52 -0.32 0
v -3.52 0 0
v -3.84 -0.32 0
v -3.84 0 0
v -4.16 -0.32 0
v -4.16 0 0
v -4.48 -0.32 0
v -4.48 0 0
v -4.8 -0.32 0
v -4.8 0 0
v 0 -0.64 0
v -0.32 -0.64 0
v -0.64 -0.64 0
v -0.96 -0.64 0
v -1.28 -0.64 0
v -1.6 -0.64 0
v -1.92 -0.64 0
v -2.24 -0.64 0
v -2.56 -0.64 0
v -2.88 -0.64 0
v -3.2 -0.64 0
v -3.52 -0.64 0
v -3.84 -0.64 0
v -4.16 -0.64 0
v -4.48 -0.64 0
v -4.8 -0.64 0
v 0 -0.96 0
v -0.32 -0.96 0
v -0.64 -0.96 0
v -0.96 -0.96 0
v -1.28 -0.96 0
v -1.6 -0.96 0
v -1.92 -0.96 0
v -2.24 -0.96 0
v -2.56 -0.96 0
v -2.88 -0.96 0
v -3.2 -0.96 0
v -3.52 -0.96 0
v -3.84 -0.96 0
v -4.16 -0.96 0
v -4.48 -0.96 0
v -4.8 -0.96 0
v 0 -1.28 0
v -0.32 -1.28 0
v -0.64 -1.28 0
v -0.96 -1.28 0
v -1.28 -1.28 0
v -1.6 -1.28 0
v -1.92 -1.28 0
v -2.24 -1.28 0
v -2.56 -1.28 0
v -2.88 -1.28 0
v -3.2 -1.28 0
v -3.52 -1.28 0
v -3.84 -1.28 0
v -4.16 -1.28 0
v -4.48 -1.28 0
v -4.8 -1.28 0
v 0 -1.6 0
v -0.32 -1.6 0
v -0.64 -1.6 0
v -0.96 -1.6 0
v -1.28 -1.6 0
v -1.6 -1.6 0
v -1.92 -1.6 0
v -2.24 -1.6 0
v -2.56 -1.6 0
v -2.88 -1.6 0
v -3.2 -1.6 0
v -3.52 -1.6 0
v -3.84 -1.6 0
v -4.16 -1.6 0
v -4.48 -1.6 0
v -4.8 -1.6 0
v 0 -1.92 0
v -0.32 -1.92 0
v -0.64 -1.92 0
v -0.96 -1.92 0
v -1.28 -1.92 0
v -1.6 -1.92 0
v -1.92 -1.92 0
v -2.24 -1.92 0
v -2.56 -1.92 0
v -2.88 -1.92 0
v -3.2 -1.92 0
v -3.52 -1.92 0
v -3.84 -1.92 0
v -4.16 -1.92 0
v -4.48 -1.92 0
v -4.8 -1.92 0
v 0 -2.24 0
v -0.32 -2.24 0
v -0.64 -2.24 0
v -0.96 -2.24 0
v -1.28 -2.24 0
v -1.6 -2.24 0
v -1.92 -2.24 0
v -2.24 -2.24 0
v -2.56 -2.24 0
v -2.88 -2.24 0
v -3.2 -2.24 0
v -3.52 -2.24 0
v -3.84 -2.24 0
v -4.16 -2.24 0
v -4.48 -2.24 0
v -4.8 -2.24 0
v 0 -2.56 0
v -0.32 -2.56 0
v -0.64 -2.56 0
v -0.96 -2.56 0
v -1.28 -2.56 0
v -1.6 -2.56 0
v -1.92 -2.56 0
v -2.24 -2.56 0
v -2.56 -2.56 0
v -2.88 -2.56 0
v -3.2 -2.56 0
v -3.52 -2.56 0
v -3.84 -2.56 0
v -4.16 -2.56 0
v -4.48 -2.56 0
v -4.8 -2.56 0
v 0 -2.88 0
v -0.32 -2.88 0
v -0.64 -2.88 0
v -0.96 -2.88 0
v -1.28 -2.88 0
v -1.6 -2.88 0
v -1.92 -2.88 0
v -2.24 -2.88 0
v -2.56 -2.88 0
v -2.88 -2.88 0
v -3.2 -2.88 0
v -3.52 -2.88 0
v -3.84 -2.88 0
v -4.16 -2.88 0
v -4.48 -2.88 0
v -4.8 -2.88 0
v 0 -3.2 0
v -0.32 -3.2 0
v -0.64 -3.2 0
v -0.96 -3.2 0
v -1.28 -3.2 0
v -1.6 -3.2 0
v -1.92 -3.2 0
v -2.24 -3.2 0
v -2.56 -3.2 0
v -2.88 -3.2 0
v -3.2 -3.2 0
v -3.52 -3.2 0
v -3.84 -3.2 0
v -4.16 -3.2 0
v -4.48 -3.2 0
v -4.8 -3.2 0
v 0 -3.52 0
v -0.32 -3.52 0
v -0.64 -3.52 0
v -0.96 -3.52 0
v -1.28 -3.52 0
v -1.6 -3.52 0
v -1.92 -3.52 0
v -2.24 -3.52 0
v -2.56 -3.52 0
v -2.88 -3.52 0
v -3.2 -3.52 0
v -3.52 -3.52 0
v -3.84 -3.52 0
v -4.16 -3.52 0
v -4.48 -3.52 0
v -4.8 -3.52 0
v 0 -3.84 0
v -0.32 -3.84 0
v -0.64 -3.84 0
v -0.96 -3.84 0
v -1.28 -3.84 0
v -1.6 -3.84 0
v -1.92 -3.84 0
v -2.24 -3.84 0
v -2.56 -3.84 0
v -2.88 -3.84 0
v -3.2 -3.84 0
v -3.52 -3.84 0
v -3.84 -3.84 0
v -4.16 -3.84 0
v -4.48 -3.84 0
v -4.8 -3.84 0
v 0 -4.16 0
v -0.32 -4.16 0
v -0.64 -4.16 0
v -0.96 -4.16 0
v -1.28 -4.16 0
v -1.6 -4.16 0
v -1.92 -4.16 0
v -2.24 -4.16 0
v -2.56 -4.16 0
v -2.88 -4.16 0
v -3.2 -4.16 0
v -3.52 -4.16 0
v -3.84 -4.16 0
v -4.16 -4.16 0
v -4.48 -4.16 0
v -4.8 -4.16 0
v 0 -4.48 0
v -0.32 -4.48 0
v -0.64 -4.48 0
v -0.96 -4.48 0
v -1.28 -4.48 0
v -1.6 -4.48 0
v -1.92 -4.48 0
v -2.24 -4.48 0
v -2.56 -4.48 0
v -2.88 -4.48 0
v -3.2 -4.48 0
v -3.52 -4.48 0
v -3.84 -4.48 0
v -4.16 -4.48 0
v -4.48 -4.48 0
v -4.8 -4.48 0
v 0 -4.8 0
v -0.32 -4.8 0
v -0.64 -4.8 0
v -0.96 -4.8 0
v -1.28 -4.8 0
v -1.6 -4.8 0
v -1.92 -4.8 0
v -2.24 -4.8 0
v -2.56 -4.8 0
v -2.88 -4.8 0
v -3.2 -4.8 0
v -3.52 -4.8 0
v -3.84 -4.8 0
v -4.16 -4.8 0
v -4.48 -4.8 0
v -4.8 -4.8 0

# Texture cooridinates (Count = 104)
vt 0.2188721 0.6251221
vt 0.2498779 0.6251221
vt 0.2498779 0.6561279
vt 0.2188721 0.6561279
vt 0.1876221 0.6251221
vt 0.2186279 0.6251221
vt 0.2186279 0.6561279
vt 0.1876221 0.6561279
vt 0.2501221 0.6251221
vt 0.2811279 0.6251221
vt 0.2811279 0.6561279
vt 0.2501221 0.6561279
vt 0.2188721 0.6876221
vt 0.2498779 0.6876221
vt 0.2498779 0.7186279
vt 0.2188721 0.7186279
vt 0.0001220703 0.5001221
vt 0.06237793 0.5001221
vt 0.06237793 0.5623779
vt 0.0001220703 0.5623779
vt 0.06262207 0.5001221
vt 0.1248779 0.5001221
vt 0.1248779 0.5623779
vt 0.06262207 0.5623779
vt 0.1251221 0.5001221
vt 0.1873779 0.5001221
vt 0.1873779 0.5623779
vt 0.1251221 0.5623779
vt 0.0001220703 0.4376221
vt 0.06237793 0.4376221
vt 0.06237793 0.4998779
vt 0.0001220703 0.4998779
vt 0.06262207 0.4376221
vt 0.1248779 0.4376221
vt 0.1248779 0.4998779
vt 0.06262207 0.4998779
vt 0.1251221 0.4376221
vt 0.1873779 0.4376221
vt 0.1873779 0.4998779
vt 0.1251221 0.4998779
vt 0.0001220703 0.3751221
vt 0.06237793 0.3751221
vt 0.06237793 0.4373779
vt 0.0001220703 0.4373779
vt 0.06262207 0.3751221
vt 0.1248779 0.3751221
vt 0.1248779 0.4373779
vt 0.06262207 0.4373779
vt 0.1251221 0.3751221
vt 0.1873779 0.3751221
vt 0.1873779 0.4373779
vt 0.1251221 0.4373779
vt 0.0001220703 0.3126221
vt 0.06237793 0.3126221
vt 0.06237793 0.3748779
vt 0.0001220703 0.3748779
vt 0.06262207 0.3126221
vt 0.1248779 0.3126221
vt 0.1248779 0.3748779
vt 0.06262207 0.3748779
vt 0.1251221 0.3126221
vt 0.1873779 0.3126221
vt 0.1873779 0.3748779
vt 0.1251221 0.3748779
vt 0.0001220703 0.2501221
vt 0.06237793 0.2501221
vt 0.06237793 0.3123779
vt 0.0001220703 0.3123779
vt 0.06262207 0.2501221
vt 0.1248779 0.2501221
vt 0.1248779 0.3123779
vt 0.06262207 0.3123779
vt 0.1251221 0.2501221
vt 0.1873779 0.2501221
vt 0.1873779 0.3123779
vt 0.1251221 0.3123779
vt 0.7501221 0.3126221
vt 0.7811279 0.3126221
vt 0.7811279 0.3436279
vt 0.7501221 0.3436279
vt 0.7813721 0.3126221
vt 0.8123779 0.3126221
vt 0.8123779 0.3436279
vt 0.7813721 0.3436279
vt 0.7501221 0.2813721
vt 0.7811279 0.2813721
vt 0.7811279 0.3123779
vt 0.7501221 0.3123779
vt 0.7813721 0.2813721
vt 0.8123779 0.2813721
vt 0.8123779 0.3123779
vt 0.7813721 0.3123779
vt 0.8751221 0.3126221
vt 0.9061279 0.3126221
vt 0.9061279 0.3436279
vt 0.8751221 0.3436279
vt 0.8751221 0.2813721
vt 0.9061279 0.2813721
vt 0.9061279 0.3123779
vt 0.8751221 0.3123779
vt 0.0001220703 0.0001220703
vt 0.9998779 0.0001220703
vt 0.9998779 0.9998779
vt 0.0001220703 0.9998779

# Normal
vn 0 0 -1

# Groups (Count = 3)

g mesh_0001
f 1/1/1 2/2/1 3/3/1 4/4/1
f 2/5/1 5/6/1 6/7/1 3/8/1
f 5/9/1 7/10/1 8/11/1 6/12/1
f 7/9/1 9/10/1 10/11/1 8/12/1
f 9/5/1 11/6/1 12/7/1 10/8/1
f 11/5/1 13/6/1 14/7/1 12/8/1
f 13/13/1 15/14/1 16/15/1 14/16/1
f 15/13/1 17/14/1 18/15/1 16/16/1
f 17/1/1 19/2/1 20/3/1 18/4/1
f 19/1/1 21/2/1 22/3/1 20/4/1
f 21/5/1 23/6/1 24/7/1 22/8/1
f 23/1/1 25/2/1 26/3/1 24/4/1
f 25/9/1 27/10/1 28/11/1 26/12/1
f 27/5/1 29/6/1 30/7/1 28/8/1
f 29/5/1 31/6/1 32/7/1 30/8/1
f 33/1/1 34/2/1 2/3/1 1/4/1
f 34/1/1 35/2/1 5/3/1 2/4/1
f 35/13/1 36/14/1 7/15/1 5/16/1
f 36/9/1 37/10/1 9/11/1 7/12/1
f 37/9/1 38/10/1 11/11/1 9/12/1
f 38/1/1 39/2/1 13/3/1 11/4/1
f 39/5/1 40/6/1 15/7/1 13/8/1
f 40/13/1 41/14/1 17/15/1 15/16/1
f 41/1/1 42/2/1 19/3/1 17/4/1
f 42/5/1 43/6/1 21/7/1 19/8/1
f 43/13/1 44/14/1 23/15/1 21/16/1
f 44/1/1 45/2/1 25/3/1 23/4/1
f 45/1/1 46/2/1 27/3/1 25/4/1
f 46/1/1 47/2/1 29/3/1 27/4/1
f 47/9/1 48/10/1 31/11/1 29/12/1
f 49/5/1 50/6/1 34/7/1 33/8/1
f 50/13/1 51/14/1 35/15/1 34/16/1
f 51/9/1 52/10/1 36/11/1 35/12/1
f 52/13/1 53/14/1 37/15/1 36/16/1
f 53/9/1 54/10/1 38/11/1 37/12/1
f 54/1/1 55/2/1 39/3/1 38/4/1
f 55/5/1 56/6/1 40/7/1 39/8/1
f 56/5/1 57/6/1 41/7/1 40/8/1
f 57/5/1 58/6/1 42/7/1 41/8/1
f 58/9/1 59/10/1 43/11/1 42/12/1
f 59/9/1 60/10/1 44/11/1 43/12/1
f 60/5/1 61/6/1 45/7/1 44/8/1
f 61/13/1 62/14/1 46/15/1 45/16/1
f 62/9/1 63/10/1 47/11/1 46/12/1
f 63/13/1 64/14/1 48/15/1 47/16/1
f 65/9/1 66/10/1 50/11/1 49/12/1
f 66/13/1 67/14/1 51/15/1 50/16/1
f 67/9/1 68/10/1 52/11/1 51/12/1
f 68/1/1 69/2/1 53/3/1 52/4/1
f 69/5/1 70/6/1 54/7/1 53/8/1
f 70/5/1 71/6/1 55/7/1 54/8/1
f 71/5/1 72/6/1 56/7/1 55/8/1
f 72/13/1 73/14/1 57/15/1 56/16/1
f 73/5/1 74/6/1 58/7/1 57/8/1
f 74/13/1 75/14/1 59/15/1 58/16/1
f 75/9/1 76/10/1 60/11/1 59/12/1
f 76/1/1 77/2/1 61/3/1 60/4/1
f 77/5/1 78/6/1 62/7/1 61/8/1
f 78/5/1 79/6/1 63/7/1 62/8/1
f 79/9/1 80/10/1 64/11/1 63/12/1
f 81/1/1 82/2/1 66/3/1 65/4/1
f 82/1/1 83/2/1 67/3/1 66/4/1
f 83/13/1 84/14/1 68/15/1 67/16/1
f 84/9/1 85/10/1 69/11/1 68/12/1
f 85/9/1 86/10/1 70/11/1 69/12/1
f 86/9/1 87/10/1 71/11/1 70/12/1
f 87/5/1 88/6/1 72/7/1 71/8/1
f 88/9/1 89/10/1 73/11/1 72/12/1
f 89/1/1 90/2/1 74/3/1 73/4/1
f 90/13/1 91/14/1 75/15/1 74/16/1
f 91/13/1 92/14/1 76/15/1 75/16/1
f 92/9/1 93/10/1 77/11/1 76/12/1
f 93/9/1 94/10/1 78/11/1 77/12/1
f 94/5/1 95/6/1 79/7/1 78/8/1
f 95/9/1 96/10/1 80/11/1 79/12/1
f 97/5/1 98/6/1 82/7/1 81/8/1
f 98/9/1 99/10/1 83/11/1 82/12/1
f 99/13/1 100/14/1 84/15/1 83/16/1
f 100/1/1 101/2/1 85/3/1 84/4/1
f 101/1/1 102/2/1 86/3/1 85/4/1
f 102/1/1 103/2/1 87/3/1 86/4/1
f 103/9/1 104/10/1 88/11/1 87/12/1
f 104/9/1 105/10/1 89/11/1 88/12/1
f 105/13/1 106/14/1 90/15/1 89/16/1
f 106/9/1 107/10/1 91/11/1 90/12/1
f 107/9/1 108/10/1 92/11/1 91/12/1
f 108/5/1 109/6/1 93/7/1 92/8/1
f 109/1/1 110/2/1 94/3/1 93/4/1
f 110/9/1 111/10/1 95/11/1 94/12/1
f 111/1/1 112/2/1 96/3/1 95/4/1
f 113/1/1 114/2/1 98/3/1 97/4/1
f 114/9/1 115/10/1 99/11/1 98/12/1
f 115/9/1 116/10/1 100/11/1 99/12/1
f 116/1/1 117/2/1 101/3/1 100/4/1
f 117/1/1 118/2/1 102/3/1 101/4/1
f 118/5/1 119/6/1 103/7/1 102/8/1
f 119/9/1 120/10/1 104/11/1 103/12/1
f 120/5/1 121/6/1 105/7/1 104/8/1
f 121/1/1 122/2/1 106/3/1 105/4/1
f 122/13/1 123/14/1 107/15/1 106/16/1
f 123/13/1 124/14/1 108/15/1 107/16/1
f 124/5/1 125/6/1 109/7/1 108/8/1
f 125/1/1 126/2/1 110/3/1 109/4/1
f 126/13/1 127/14/1 111/15/1 110/16/1
f 127/13/1 128/14/1 112/15/1 111/16/1
f 129/9/1 130/10/1 114/11/1 113/12/1
f 130/13/1 131/14/1 115/15/1 114/16/1
f 131/1/1 132/2/1 116/3/1 115/4/1
f 132/5/1 133/6/1 117/7/1 116/8/1
f 133/9/1 134/10/1 118/11/1 117/12/1
f 134/5/1 135/6/1 119/7/1 118/8/1
f 135/5/1 136/6/1 120/7/1 119/8/1
f 136/1/1 137/2/1 121/3/1 120/4/1
f 137/13/1 138/14/1 122/15/1 121/16/1
f 138/9/1 139/10/1 123/11/1 122/12/1
f 139/9/1 140/10/1 124/11/1 123/12/1
f 140/1/1 141/2/1 125/3/1 124/4/1
f 141/13/1 142/14/1 126/15/1 125/16/1
f 142/13/1 143/14/1 127/15/1 126/16/1
f 143/5/1 144/6/1 128/7/1 127/8/1
f 145/1/1 146/2/1 130/3/1 129/4/1
f 146/9/1 147/10/1 131/11/1 130/12/1
f 147/5/1 148/6/1 132/7/1 131/8/1
f 148/5/1 149/6/1 133/7/1 132/8/1
f 149/9/1 150/10/1 134/11/1 133/12/1
f 150/1/1 151/2/1 135/3/1 134/4/1
f 151/5/1 152/6/1 136/7/1 135/8/1
f 152/13/1 153/14/1 137/15/1 136/16/1
f 153/13/1 154/14/1 138/15/1 137/16/1
f 154/13/1 155/14/1 139/15/1 138/16/1
f 155/13/1 156/14/1 140/15/1 139/16/1
f 156/1/1 157/2/1 141/3/1 140/4/1
f 157/1/1 158/2/1 142/3/1 141/4/1
f 158/5/1 159/6/1 143/7/1 142/8/1
f 159/1/1 160/2/1 144/3/1 143/4/1
f 161/13/1 162/14/1 146/15/1 145/16/1
f 162/1/1 163/2/1 147/3/1 146/4/1
f 163/5/1 164/6/1 148/7/1 147/8/1
f 164/1/1 165/2/1 149/3/1 148/4/1
f 165/1/1 166/2/1 150/3/1 149/4/1
f 166/13/1 167/14/1 151/15/1 150/16/1
f 167/1/1 168/2/1 152/3/1 151/4/1
f 168/9/1 169/10/1 153/11/1 152/12/1
f 169/13/1 170/14/1 154/15/1 153/16/1
f 170/1/1 171/2/1 155/3/1 154/4/1
f 171/9/1 172/10/1 156/11/1 155/12/1
f 172/13/1 173/14/1 157/15/1 156/16/1
f 173/1/1 174/2/1 158/3/1 157/4/1
f 174/5/1 175/6/1 159/7/1 158/8/1
f 175/9/1 176/10/1 160/11/1 159/12/1
f 177/13/1 178/14/1 162/15/1 161/16/1
f 178/5/1 179/6/1 163/7/1 162/8/1
f 179/9/1 180/10/1 164/11/1 163/12/1
f 180/1/1 181/2/1 165/3/1 164/4/1
f 181/1/1 182/2/1 166/3/1 165/4/1
f 182/9/1 183/10/1 167/11/1 166/12/1
f 183/1/1 184/2/1 168/3/1 167/4/1
f 184/13/1 185/14/1 169/15/1 168/16/1
f 185/1/1 186/2/1 170/3/1 169/4/1
f 186/9/1 187/10/1 171/11/1 170/12/1
f 187/9/1 188/10/1 172/11/1 171/12/1
f 188/1/1 189/2/1 173/3/1 172/4/1
f 189/5/1 190/6/1 174/7/1 173/8/1
f 190/5/1 191/6/1 175/7/1 174/8/1
f 191/13/1 192/14/1 176/15/1 175/16/1
f 193/5/1 194/6/1 178/7/1 177/8/1
f 194/13/1 195/14/1 179/15/1 178/16/1
f 195/13/1 196/14/1 180/15/1 179/16/1
f 196/1/1 197/2/1 181/3/1 180/4/1
f 197/13/1 198/14/1 182/15/1 181/16/1
f 198/13/1 199/14/1 183/15/1 182/16/1
f 199/5/1 200/6/1 184/7/1 183/8/1
f 200/1/1 201/2/1 185/3/1 184/4/1
f 201/13/1 202/14/1 186/15/1 185/16/1
f 202/5/1 203/6/1 187/7/1 186/8/1
f 203/13/1 204/14/1 188/15/1 187/16/1
f 204/9/1 205/10/1 189/11/1 188/12/1
f 205/1/1 206/2/1 190/3/1 189/4/1
f 206/1/1 207/2/1 191/3/1 190/4/1
f 207/5/1 208/6/1 192/7/1 191/8/1
f 209/1/1 210/2/1 194/3/1 193/4/1
f 210/13/1 211/14/1 195/15/1 194/16/1
f 211/9/1 212/10/1 196/11/1 195/12/1
f 212/5/1 213/6/1 197/7/1 196/8/1
f 213/1/1 214/2/1 198/3/1 197/4/1
f 214/5/1 215/6/1 199/7/1 198/8/1
f 215/13/1 216/14/1 200/15/1 199/16/1
f 216/9/1 217/10/1 201/11/1 200/12/1
f 217/9/1 218/10/1 202/11/1 201/12/1
f 218/5/1 219/6/1 203/7/1 202/8/1
f 219/13/1 220/14/1 204/15/1 203/16/1
f 220/5/1 221/6/1 205/7/1 204/8/1
f 221/9/1 222/10/1 206/11/1 205/12/1
f 222/9/1 223/10/1 207/11/1 206/12/1
f 223/13/1 224/14/1 208/15/1 207/16/1
f 225/9/1 226/10/1 210/11/1 209/12/1
f 226/1/1 227/2/1 211/3/1 210/4/1
f 227/5/1 228/6/1 212/7/1 211/8/1
f 228/1/1 229/2/1 213/3/1 212/4/1
f 229/5/1 230/6/1 214/7/1 213/8/1
f 230/1/1 231/2/1 215/3/1 214/4/1
f 231/13/1 232/14/1 216/15/1 215/16/1
f 232/9/1 233/10/1 217/11/1 216/12/1
f 233/9/1 234/10/1 218/11/1 217/12/1
f 234/13/1 235/14/1 219/15/1 218/16/1
f 235/13/1 236/14/1 220/15/1 219/16/1
f 236/9/1 237/10/1 221/11/1 220/12/1
f 237/9/1 238/10/1 222/11/1 221/12/1
f 238/1/1 239/2/1 223/3/1 222/4/1
f 239/13/1 240/14/1 224/15/1 223/16/1
f 241/5/1 242/6/1 226/7/1 225/8/1
f 242/9/1 243/10/1 227/11/1 226/12/1
f 243/9/1 244/10/1 228/11/1 227/12/1
f 244/9/1 245/10/1 229/11/1 228/12/1
f 245/9/1 246/10/1 230/11/1 229/12/1
f 246/13/1 247/14/1 231/15/1 230/16/1
f 247/13/1 248/14/1 232/15/1 231/16/1
f 248/9/1 249/10/1 233/11/1 232/12/1
f 249/5/1 250/6/1 234/7/1 233/8/1
f 250/13/1 251/14/1 235/15/1 234/16/1
f 251/1/1 252/2/1 236/3/1 235/4/1
f 252/1/1 253/2/1 237/3/1 236/4/1
f 253/9/1 254/10/1 238/11/1 237/12/1
f 254/5/1 255/6/1 239/7/1 238/8/1
f 255/13/1 256/14/1 240/15/1 239/16/1

g mesh_0002
f 2/17/1 5/18/1 6/19/1 3/20/1
f 5/21/1 7/22/1 8/23/1 6/24/1
f 7/25/1 9/26/1 10/27/1 8/28/1
f 34/29/1 35/30/1 5/31/1 2/32/1
f 35/33/1 36/34/1 7/35/1 5/36/1
f 36/37/1 37/38/1 9/39/1 7/40/1
f 50/41/1 51/42/1 35/43/1 34/44/1
f 51/45/1 52/46/1 36/47/1 35/48/1
f 52/49/1 53/50/1 37/51/1 36/52/1
f 66/53/1 67/54/1 51/55/1 50/56/1
f 67/57/1 68/58/1 52/59/1 51/60/1
f 68/61/1 69/62/1 53/63/1 52/64/1
f 73/17/1 74/18/1 58/19/1 57/20/1
f 74/21/1 75/22/1 59/23/1 58/24/1
f 75/25/1 76/26/1 60/27/1 59/28/1
f 82/65/1 83/66/1 67/67/1 66/68/1
f 83/69/1 84/70/1 68/71/1 67/72/1
f 84/73/1 85/74/1 69/75/1 68/76/1
f 89/29/1 90/30/1 74/31/1 73/32/1
f 90/33/1 91/34/1 75/35/1 74/36/1
f 91/37/1 92/38/1 76/39/1 75/40/1
f 105/41/1 106/42/1 90/43/1 89/44/1
f 106/45/1 107/46/1 91/47/1 90/48/1
f 107/49/1 108/50/1 92/51/1 91/52/1
f 121/53/1 122/54/1 106/55/1 105/56/1
f 122/57/1 123/58/1 107/59/1 106/60/1
f 123/61/1 124/62/1 108/63/1 107/64/1
f 137/65/1 138/66/1 122/67/1 121/68/1
f 138/69/1 139/70/1 123/71/1 122/72/1
f 139/73/1 140/74/1 124/75/1 123/76/1
f 165/17/1 166/18/1 150/19/1 149/20/1
f 166/21/1 167/22/1 151/23/1 150/24/1
f 167/25/1 168/26/1 152/27/1 151/28/1
f 172/17/1 173/18/1 157/19/1 156/20/1
f 173/21/1 174/22/1 158/23/1 157/24/1
f 174/25/1 175/26/1 159/27/1 158/28/1
f 181/29/1 182/30/1 166/31/1 165/32/1
f 182/33/1 183/34/1 167/35/1 166/36/1
f 183/37/1 184/38/1 168/39/1 167/40/1
f 188/29/1 189/30/1 173/31/1 172/32/1
f 189/33/1 190/34/1 174/35/1 173/36/1
f 190/37/1 191/38/1 175/39/1 174/40/1
f 197/41/1 198/42/1 182/43/1 181/44/1
f 198/45/1 199/46/1 183/47/1 182/48/1
f 199/49/1 200/50/1 184/51/1 183/52/1
f 204/41/1 205/42/1 189/43/1 188/44/1
f 205/45/1 206/46/1 190/47/1 189/48/1
f 206/49/1 207/50/1 191/51/1 190/52/1
f 213/53/1 214/54/1 198/55/1 197/56/1
f 214/57/1 215/58/1 199/59/1 198/60/1
f 215/61/1 216/62/1 200/63/1 199/64/1
f 220/53/1 221/54/1 205/55/1 204/56/1
f 221/57/1 222/58/1 206/59/1 205/60/1
f 222/61/1 223/62/1 207/63/1 206/64/1
f 229/65/1 230/66/1 214/67/1 213/68/1
f 230/69/1 231/70/1 215/71/1 214/72/1
f 231/73/1 232/74/1 216/75/1 215/76/1
f 236/65/1 237/66/1 221/67/1 220/68/1

g mesh_0003
f 44/77/1 45/78/1 25/79/1 23/80/1
f 45/81/1 46/82/1 27/83/1 25/84/1
f 60/85/1 61/86/1 45/87/1 44/88/1
f 61/89/1 62/90/1 46/91/1 45/92/1
f 97/93/1 98/94/1 82/95/1 81/96/1
f 113/97/1 114/98/1 98/99/1 97/100/1
f 125/93/1 126/94/1 110/95/1 109/96/1
f 141/97/1 142/98/1 126/99/1 125/100/1
f 194/77/1 195/78/1 179/79/1 178/80/1
f 195/81/1 196/82/1 180/83/1 179/84/1
f 210/85/1 211/86/1 195/87/1 194/88/1
f 211/89/1 212/90/1 196/91/1 195/92/1
f 237/77/1 238/78/1 222/79/1 221/80/1
f 238/81/1 239/82/1 223/83/1 222/84/1
f 253/85/1 254/86/1 238/87/1 237/88/1
f 254/89/1 255/90/1 239/91/1 238/92/1

g mesh_0004
f 1/101/1 2/102/1 3/103/1 4/104/1
f 2/101/1 5/102/1 6/103/1 3/104/1
f 5/101/1 7/102/1 8/103/1 6/104/1
f 7/101/1 9/102/1 10/103/1 8/104/1
f 9/101/1 11/102/1 12/103/1 10/104/1
f 11/101/1 13/102/1 14/103/1 12/104/1
f 13/101/1 15/102/1 16/103/1 14/104/1
f 15/101/1 17/102/1 18/103/1 16/104/1
f 17/101/1 19/102/1 20/103/1 18/104/1
f 19/101/1 21/102/1 22/103/1 20/104/1
f 21/101/1 23/102/1 24/103/1 22/104/1
f 23/101/1 25/102/1 26/103/1 24/104/1
f 25/101/1 27/102/1 28/103/1 26/104/1
f 27/101/1 29/102/1 30/103/1 28/104/1
f 29/101/1 31/102/1 32/103/1 30/104/1
f 33/101/1 34/102/1 2/103/1 1/104/1
f 47/101/1 48/102/1 31/103/1 29/104/1
f 49/101/1 50/102/1 34/103/1 33/104/1
f 63/101/1 64/102/1 48/103/1 47/104/1
f 65/101/1 66/102/1 50/103/1 49/104/1
f 79/101/1 80/102/1 64/103/1 63/104/1
f 81/101/1 82/102/1 66/103/1 65/104/1
f 95/101/1 96/102/1 80/103/1 79/104/1
f 97/101/1 98/102/1 82/103/1 81/104/1
f 111/101/1 112/102/1 96/103/1 95/104/1
f 113/101/1 114/102/1 98/103/1 97/104/1
f 127/101/1 128/102/1 112/103/1 111/104/1
f 129/101/1 130/102/1 114/103/1 113/104/1
f 143/101/1 144/102/1 128/103/1 127/104/1
f 145/101/1 146/102/1 130/103/1 129/104/1
f 159/101/1 160/102/1 144/103/1 143/104/1
f 161/101/1 162/102/1 146/103/1 145/104/1
f 175/101/1 176/102/1 160/103/1 159/104/1
f 177/101/1 178/102/1 162/103/1 161/104/1
f 191/101/1 192/102/1 176/103/1 175/104/1
f 193/101/1 194/102/1 178/103/1 177/104/1
f 207/101/1 208/102/1 192/103/1 191/104/1
f 209/101/1 210/102/1 194/103/1 193/104/1
f 223/101/1 224/102/1 208/103/1 207/104/1
f 225/101/1 226/102/1 210/103/1 209/104/1
f 239/101/1 240/102/1 224/103/1 223/104/1
f 241/101/1 242/102/1 226/103/1 225/104/1
f 242/101/1 243/102/1 227/103/1 226/104/1
f 243/101/1 244/102/1 228/103/1 227/104/1
f 244/101/1 245/102/1 229/103/1 228/104/1
f 245/101/1 246/102/1 230/103/1 229/104/1
f 246/101/1 247/102/1 231/103/1 230/104/1
f 247/101/1 248/102/1 232/103/1 231/104/1
f 248/101/1 249/102/1 233/103/1 232/104/1
f 249/101/1 250/102/1 234/103/1 233/104/1
f 250/101/1 251/102/1 235/103/1 234/104/1
f 251/101/1 252/102/1 236/103/1 235/104/1
f 252/101/1 253/102/1 237/103/1 236/104/1
f 253/101/1 254/102/1 238/103/1 237/104/1
f 254/101/1 255/102/1 239/103/1 238/104/1
f 255/101/1 256/102/1 240/103/1 239/104/1

